<?xml version="1.0" standalone="no"?><!DOCTYPE svg PUBLIC "-//W3C//DTD SVG 1.1//EN" "http://www.w3.org/Graphics/SVG/1.1/DTD/svg11.dtd"><svg t="1626978453716" class="icon" viewBox="0 0 1025 1024" version="1.1" xmlns="http://www.w3.org/2000/svg" p-id="1399" xmlns:xlink="http://www.w3.org/1999/xlink" width="200.1953125" height="200"><defs><style type="text/css">@font-face { font-family: feedback-iconfont; src: url("//at.alicdn.com/t/font_1031158_1uhr8ri0pk5.eot?#iefix") format("embedded-opentype"), url("//at.alicdn.com/t/font_1031158_1uhr8ri0pk5.woff2") format("woff2"), url("//at.alicdn.com/t/font_1031158_1uhr8ri0pk5.woff") format("woff"), url("//at.alicdn.com/t/font_1031158_1uhr8ri0pk5.ttf") format("truetype"), url("//at.alicdn.com/t/font_1031158_1uhr8ri0pk5.svg#iconfont") format("svg"); }
</style></defs><path d="M512.016875 999.03622" p-id="1400"></path><path d="M512.016875 0C229.22403 0 0 229.23403 0 512.016875 0 794.77597 229.22403 1024 512.016875 1024c282.759095 0 511.998125-229.22403 511.998125-511.983125C1024.015 229.23403 794.77597 0 512.016875 0zM828.746012 526.568143 195.283988 526.568143c-8.04751 0-14.571268-6.528758-14.571268-14.575018 0-8.03751 6.523758-14.565018 14.571268-14.565018l633.457023 0c8.04751 0 14.565018 6.528758 14.575018 14.565018C843.316029 520.039385 836.793521 526.568143 828.746012 526.568143z" p-id="1401"></path></svg>